<svg width="13" height="13" viewBox="0 0 13 13" fill="none" xmlns="http://www.w3.org/2000/svg">
<path d="M12.7505 9.575V11.45C12.7512 11.6241 12.7155 11.7964 12.6458 11.9558C12.5761 12.1153 12.4738 12.2585 12.3455 12.3762C12.2173 12.4938 12.0658 12.5834 11.9009 12.6392C11.7361 12.695 11.5613 12.7157 11.388 12.7C9.46475 12.491 7.61735 11.8338 5.99423 10.7812C4.48412 9.82166 3.20381 8.54136 2.24423 7.03125C1.18796 5.40075 0.530629 3.54437 0.325477 1.6125C0.309859 1.43967 0.330399 1.26547 0.38579 1.10101C0.441181 0.936555 0.530209 0.78543 0.647206 0.657263C0.764203 0.529095 0.906605 0.426693 1.06535 0.356576C1.22409 0.286459 1.39569 0.250163 1.56923 0.25H3.44423C3.74754 0.247014 4.0416 0.354424 4.27158 0.552207C4.50156 0.749991 4.65177 1.02465 4.69423 1.325C4.77337 1.92504 4.92013 2.5142 5.13173 3.08125C5.21582 3.30495 5.23402 3.54807 5.18417 3.7818C5.13432 4.01553 5.01852 4.23007 4.85048 4.4L4.05673 5.19375C4.94645 6.75846 6.24201 8.05403 7.80673 8.94375L8.60048 8.15C8.77041 7.98196 8.98495 7.86615 9.21868 7.81631C9.4524 7.76646 9.69552 7.78466 9.91923 7.86875C10.4863 8.08034 11.0754 8.22711 11.6755 8.30625C11.9791 8.34908 12.2564 8.502 12.4546 8.73593C12.6528 8.96986 12.7581 9.26848 12.7505 9.575Z" fill="#333333"/>
</svg>
